<svg width="120" height="120" viewBox="0 0 120 120" fill="none" xmlns="http://www.w3.org/2000/svg">
<path d="M116.484 84.8438L90.2344 73.5938C89.5312 73.3594 88.8281 73.125 87.8906 73.125C86.25 73.125 84.6094 74.0625 83.6719 75.2344L71.9531 89.5312C53.6719 80.8594 39.1406 66.3281 30.4688 48.0469L44.7656 36.3281C45.9375 35.3906 46.875 33.75 46.875 31.875C46.875 31.1719 46.6406 30.4688 46.4062 29.7656L35.1562 3.51562C34.2188 1.40625 32.1094 0 29.7656 0C29.5312 0 29.0625 0.234375 28.5938 0.234375L4.21875 5.85938C1.64062 6.5625 0 8.67188 0 11.25C0 71.4844 48.5156 120 108.75 120C111.328 120 113.438 118.359 114.141 115.781L119.766 91.4062C119.766 90.9375 119.766 90.4688 119.766 90.2344C119.766 87.8906 118.359 85.7812 116.484 84.8438Z" fill="#00A3FF"/>
</svg>
