<svg width="105" height="120" viewBox="0 0 105 120" fill="none" xmlns="http://www.w3.org/2000/svg">
<path d="M73.3594 71.25C66.5625 71.25 63.5156 75 52.5 75C41.25 75 38.2031 71.25 31.4062 71.25C14.0625 71.25 0 85.5469 0 102.891V108.75C0 115.078 4.92188 120 11.25 120H93.75C99.8438 120 105 115.078 105 108.75V102.891C105 85.5469 90.7031 71.25 73.3594 71.25ZM93.75 108.75H11.25V102.891C11.25 91.6406 20.1562 82.5 31.4062 82.5C34.9219 82.5 40.3125 86.25 52.5 86.25C64.4531 86.25 69.8438 82.5 73.3594 82.5C84.6094 82.5 93.75 91.6406 93.75 102.891V108.75ZM52.5 67.5C71.0156 67.5 86.25 52.5 86.25 33.75C86.25 15.2344 71.0156 0 52.5 0C33.75 0 18.75 15.2344 18.75 33.75C18.75 52.5 33.75 67.5 52.5 67.5ZM52.5 11.25C64.6875 11.25 75 21.5625 75 33.75C75 46.1719 64.6875 56.25 52.5 56.25C40.0781 56.25 30 46.1719 30 33.75C30 21.5625 40.0781 11.25 52.5 11.25Z" fill="#00A3FF"/>
</svg>
