<svg width="150" height="120" viewBox="0 0 150 120" fill="none" xmlns="http://www.w3.org/2000/svg">
<path d="M63.75 67.5H48.75C46.6406 67.5 45 65.8594 45 63.75V48.75C45 46.875 46.6406 45 48.75 45H63.75C65.625 45 67.5 46.875 67.5 48.75V57.6562C70.0781 54.6094 73.8281 52.5 77.8125 52.5H109.922L111.562 50.8594C112.031 50.1562 112.266 49.4531 112.5 48.5156C112.266 47.5781 111.797 46.875 111.328 46.1719L97.5 33.75V11.25C97.5 9.375 95.625 7.5 93.75 7.5H86.25C84.1406 7.5 82.5 9.375 82.5 11.25V20.625L61.6406 2.10938C60.4688 0.9375 57.8906 0 56.25 0C54.375 0 52.0312 0.9375 50.625 2.10938L0.9375 46.1719C0.46875 46.875 0 47.5781 0 48.5156C0 49.4531 0.234375 50.1562 0.703125 50.8594L5.15625 55.7812C5.85938 56.4844 6.5625 56.9531 7.73438 56.9531C8.4375 56.9531 9.14062 56.7188 9.84375 56.0156L15 51.5625V90C15 94.2188 18.2812 97.5 22.5 97.5H63.75V67.5ZM147.422 105H138.75V67.5C138.75 63.5156 135.703 60 131.953 60H77.8125C74.0625 60 71.25 63.5156 71.25 67.5V105H62.3438C60.9375 105 60 106.172 60 107.578V110.156C60 115.547 64.4531 120 69.8438 120H139.922C145.312 120 149.766 115.547 150 110.156V107.578C150 106.172 148.828 105 147.422 105ZM127.5 105H82.5V71.25H127.5V105Z" fill="#00A3FF"/>
</svg>
